<?xml version="1.0" encoding="utf-8"?>
<!-- Generator: Adobe Illustrator 26.3.0, SVG Export Plug-In . SVG Version: 6.00 Build 0)  -->
<svg version="1.1" id="Layer_1" xmlns="http://www.w3.org/2000/svg" xmlns:xlink="http://www.w3.org/1999/xlink" x="0px" y="0px"
	 viewBox="0 0 382.7 405.3" style="enable-background:new 0 0 382.7 405.3;" xml:space="preserve">
<style type="text/css">
	.st0{fill:none;stroke:#FFFFFF;stroke-width:13;stroke-miterlimit:10;}
	.st1{fill:#FFFFFF;stroke:#FFFFFF;stroke-width:13;stroke-miterlimit:10;}
</style>
<path class="st0" d="M129.3,6.6c67.6,27.8,135.2,55.6,202.8,83.5c5.8,4,14.5,10.9,22.3,21.7c9.3,12.9,12.6,24.9,14.2,30.8
	c3.7,13.9,3.8,26.1,3.1,34.7c1.5,47.6,2.9,95.2,4.4,142.7c-52.3,26-104.7,52-157,78l-212-107V151.4c-0.9-9.6-1.2-23.4,2.2-39.5
	c7.8-37.3,29.9-60.6,37.1-67.7C79,12.3,117.9,7.6,129.3,6.6z"/>
<polyline class="st0" points="219.1,398.1 215.4,253.4 7.1,151.4 "/>
<path class="st0" d="M328.7,90.1c-37.7-12.5-80.4,40.9-97.3,74.5c-18.1,35.9-17.6,70.7-15.9,88.9c52-25.8,104-51.6,156-77.4
	C370.3,134.4,354,98.5,328.7,90.1z"/>
<path class="st1" d="M76.2,188.1c-4.4,12.6,13.6,32.2,33.2,36.9c14.1,3.4,33.7,0.2,37.7-10.1c4.9-12.5-13.6-34.7-34.9-38.8
	C98.5,173.4,79.8,177.6,76.2,188.1z"/>
</svg>
